<svg width="60" height="60" viewBox="0 0 60 60" fill="none" xmlns="http://www.w3.org/2000/svg">
<path d="M38.9875 10.5117H21.0125C15.2126 10.5117 10.5117 15.2134 10.5117 21.0134V38.9867C10.5117 44.7867 15.2134 49.4884 21.0134 49.4884H38.9867C44.7867 49.4884 49.4884 44.7867 49.4884 38.9867V21.0134C49.4884 15.2134 44.7875 10.5117 38.9875 10.5117Z" fill="white"/>
<path d="M38.9875 10.5117H21.0125C15.2126 10.5117 10.5117 15.2134 10.5117 21.0134V38.9867C10.5117 44.7867 15.2134 49.4884 21.0134 49.4884H38.9867C44.7867 49.4884 49.4884 44.7867 49.4884 38.9867V21.0134C49.4884 15.2134 44.7875 10.5117 38.9875 10.5117Z" stroke="#12314A" stroke-width="2" stroke-miterlimit="10"/>
<path d="M29.9999 39.4082C35.196 39.4082 39.4082 35.196 39.4082 29.9999C39.4082 24.8038 35.196 20.5916 29.9999 20.5916C24.8038 20.5916 20.5916 24.8038 20.5916 29.9999C20.5916 35.196 24.8038 39.4082 29.9999 39.4082Z" stroke="#12314A" stroke-width="2" stroke-miterlimit="10"/>
<path d="M41.424 20.5917C42.5373 20.5917 43.4399 19.6892 43.4399 18.5759C43.4399 17.4626 42.5373 16.5601 41.424 16.5601C40.3107 16.5601 39.4082 17.4626 39.4082 18.5759C39.4082 19.6892 40.3107 20.5917 41.424 20.5917Z" fill="#12314A"/>
</svg>
