<svg width="23" height="30" viewBox="0 0 23 30" fill="none" xmlns="http://www.w3.org/2000/svg">
<path d="M22.6449 0.842911C22.6449 0.62197 22.5365 0.410078 22.3434 0.253849C22.1504 0.0976202 21.8886 0.00985146 21.6156 0.00985146H16.469C13.8775 -0.0946294 11.3402 0.635298 9.41148 2.04015C7.4828 3.445 6.31955 5.41057 6.17589 7.50739V12.0059H1.02931C0.756323 12.0059 0.494513 12.0937 0.301479 12.2499C0.108446 12.4061 0 12.618 0 12.839V17.1709C0 17.3918 0.108446 17.6037 0.301479 17.7599C0.494513 17.9162 0.756323 18.0039 1.02931 18.0039H6.17589V29.1669C6.17589 29.3879 6.28433 29.5998 6.47737 29.756C6.6704 29.9122 6.93221 30 7.2052 30H13.3811C13.6541 30 13.9159 29.9122 14.1089 29.756C14.302 29.5998 14.4104 29.3879 14.4104 29.1669V18.0039H19.804C20.0329 18.0066 20.2564 17.9474 20.4391 17.8358C20.6218 17.7241 20.7532 17.5664 20.8127 17.3875L22.295 13.0556C22.3359 12.9325 22.3414 12.8034 22.311 12.6783C22.2807 12.5533 22.2152 12.4355 22.1198 12.3341C22.0243 12.2327 21.9014 12.1504 21.7605 12.0935C21.6195 12.0366 21.4643 12.0066 21.3068 12.0059H14.4104V7.50739C14.4616 7.09499 14.7009 6.71284 15.0816 6.43556C15.4622 6.15829 15.9569 6.0058 16.469 6.00788H21.6156C21.8886 6.00788 22.1504 5.92011 22.3434 5.76388C22.5365 5.60765 22.6449 5.39576 22.6449 5.17482V0.842911Z" fill="black"/>
</svg>
