<svg width="50" height="50" viewBox="0 0 50 50" fill="none" xmlns="http://www.w3.org/2000/svg">
<path d="M35.0094 17.2407C36.252 17.2407 37.2594 16.2334 37.2594 14.9907C37.2594 13.7481 36.252 12.7407 35.0094 12.7407C33.7667 12.7407 32.7594 13.7481 32.7594 14.9907C32.7594 16.2334 33.7667 17.2407 35.0094 17.2407Z" fill="black"/>
<path d="M25 15.3721C23.0957 15.3721 21.2342 15.9367 19.6509 16.9947C18.0675 18.0527 16.8335 19.5564 16.1048 21.3157C15.376 23.075 15.1854 25.0109 15.5569 26.8786C15.9284 28.7462 16.8454 30.4618 18.1919 31.8083C19.5384 33.1548 21.254 34.0718 23.1216 34.4433C24.9893 34.8148 26.9252 34.6242 28.6845 33.8954C30.4438 33.1667 31.9475 31.9326 33.0055 30.3493C34.0634 28.766 34.6281 26.9045 34.6281 25.0002C34.6285 23.7357 34.3798 22.4835 33.8961 21.3152C33.4123 20.1469 32.7032 19.0853 31.809 18.1912C30.9149 17.297 29.8533 16.5878 28.685 16.1041C27.5167 15.6204 26.2645 15.3717 25 15.3721ZM25 31.2502C23.7639 31.2502 22.5555 30.8836 21.5277 30.1969C20.4999 29.5101 19.6988 28.534 19.2257 27.392C18.7527 26.2499 18.6289 24.9933 18.8701 23.7809C19.1112 22.5685 19.7065 21.4549 20.5806 20.5808C21.4546 19.7067 22.5683 19.1114 23.7807 18.8703C24.9931 18.6291 26.2497 18.7529 27.3918 19.2259C28.5338 19.699 29.5099 20.5001 30.1967 21.5279C30.8834 22.5557 31.25 23.7641 31.25 25.0002C31.25 26.6578 30.5915 28.2475 29.4194 29.4196C28.2473 30.5917 26.6576 31.2502 25 31.2502Z" fill="black"/>
<path d="M25 9.62813C30.0063 9.62813 30.6 9.64687 32.5766 9.7375C33.7655 9.7503 34.9433 9.96863 36.0578 10.3828C36.8664 10.6953 37.6008 11.1733 38.2137 11.7863C38.8267 12.3992 39.3047 13.1336 39.6172 13.9422C40.0314 15.0567 40.2497 16.2345 40.2625 17.4234C40.3531 19.4 40.3719 19.9937 40.3719 25.0016C40.3719 30.0094 40.3531 30.6 40.2625 32.5766C40.2497 33.7655 40.0314 34.9433 39.6172 36.0578C39.3047 36.8664 38.8267 37.6008 38.2137 38.2137C37.6008 38.8267 36.8664 39.3047 36.0578 39.6172C34.9433 40.0314 33.7655 40.2497 32.5766 40.2625C30.6 40.3531 30.0063 40.3719 25 40.3719C19.9937 40.3719 19.4 40.3531 17.4234 40.2625C16.2345 40.2497 15.0567 40.0314 13.9422 39.6172C13.1336 39.3047 12.3992 38.8267 11.7863 38.2137C11.1733 37.6008 10.6953 36.8664 10.3828 36.0578C9.96863 34.9433 9.7503 33.7655 9.7375 32.5766C9.64687 30.6 9.62813 30.0063 9.62813 25C9.62813 19.9937 9.64687 19.4 9.7375 17.4234C9.7503 16.2345 9.96863 15.0567 10.3828 13.9422C10.6953 13.1336 11.1733 12.3992 11.7863 11.7863C12.3992 11.1733 13.1336 10.6953 13.9422 10.3828C15.0567 9.96863 16.2345 9.7503 17.4234 9.7375C19.4 9.64687 19.9937 9.62813 25 9.62813ZM25 6.25C19.9078 6.25 19.2688 6.27188 17.2688 6.3625C15.7137 6.39369 14.1752 6.6885 12.7188 7.23438C11.4732 7.71643 10.342 8.45323 9.39763 9.39763C8.45323 10.342 7.71643 11.4732 7.23438 12.7188C6.68832 14.1757 6.39351 15.7147 6.3625 17.2703C6.27188 19.2703 6.25 19.9062 6.25 25C6.25 30.0938 6.27188 30.7313 6.3625 32.7313C6.39369 34.2863 6.6885 35.8248 7.23438 37.2812C7.71643 38.5268 8.45323 39.658 9.39763 40.6024C10.342 41.5468 11.4732 42.2836 12.7188 42.7656C14.1757 43.3117 15.7147 43.6065 17.2703 43.6375C19.2703 43.7281 19.9078 43.75 25 43.75C30.0922 43.75 30.7313 43.7281 32.7313 43.6375C34.2868 43.6065 35.8259 43.3117 37.2828 42.7656C38.5284 42.2836 39.6595 41.5468 40.6039 40.6024C41.5483 39.658 42.2851 38.5268 42.7672 37.2812C43.3127 35.8242 43.607 34.2852 43.6375 32.7297C43.7281 30.7297 43.75 30.0938 43.75 25C43.75 19.9062 43.7281 19.2688 43.6375 17.2688C43.6063 15.7137 43.3115 14.1752 42.7656 12.7188C42.2836 11.4732 41.5468 10.342 40.6024 9.39763C39.658 8.45323 38.5268 7.71643 37.2812 7.23438C35.8242 6.68886 34.2852 6.39458 32.7297 6.36406C30.7297 6.27031 30.0938 6.25 25 6.25Z" fill="black"/>
</svg>
