<svg width="38" height="38" viewBox="0 0 38 38" fill="none" xmlns="http://www.w3.org/2000/svg">
<path d="M19 3.62813C24.0063 3.62813 24.6 3.64687 26.5766 3.7375C27.7655 3.7503 28.9433 3.96863 30.0578 4.38281C30.8664 4.69525 31.6008 5.1733 32.2137 5.78627C32.8267 6.39923 33.3047 7.13358 33.6172 7.94219C34.0314 9.05673 34.2497 10.2345 34.2625 11.4234C34.3531 13.4 34.3719 13.9937 34.3719 19.0016C34.3719 24.0094 34.3531 24.6 34.2625 26.5766C34.2497 27.7655 34.0314 28.9433 33.6172 30.0578C33.3047 30.8664 32.8267 31.6008 32.2137 32.2137C31.6008 32.8267 30.8664 33.3047 30.0578 33.6172C28.9433 34.0314 27.7655 34.2497 26.5766 34.2625C24.6 34.3531 24.0063 34.3719 19 34.3719C13.9937 34.3719 13.4 34.3531 11.4234 34.2625C10.2345 34.2497 9.05673 34.0314 7.94219 33.6172C7.13358 33.3047 6.39923 32.8267 5.78627 32.2137C5.1733 31.6008 4.69525 30.8664 4.38281 30.0578C3.96863 28.9433 3.7503 27.7655 3.7375 26.5766C3.64687 24.6 3.62813 24.0063 3.62813 19C3.62813 13.9937 3.64687 13.4 3.7375 11.4234C3.7503 10.2345 3.96863 9.05673 4.38281 7.94219C4.69525 7.13358 5.1733 6.39923 5.78627 5.78627C6.39923 5.1733 7.13358 4.69525 7.94219 4.38281C9.05673 3.96863 10.2345 3.7503 11.4234 3.7375C13.4 3.64687 13.9937 3.62813 19 3.62813ZM19 0.25C13.9078 0.25 13.2688 0.271875 11.2688 0.3625C9.71369 0.393689 8.17519 0.688498 6.71875 1.23438C5.4732 1.71643 4.34202 2.45323 3.39763 3.39763C2.45323 4.34202 1.71643 5.4732 1.23438 6.71875C0.688325 8.17568 0.393513 9.71472 0.3625 11.2703C0.271875 13.2703 0.25 13.9062 0.25 19C0.25 24.0938 0.271875 24.7313 0.3625 26.7313C0.393689 28.2863 0.688498 29.8248 1.23438 31.2812C1.71643 32.5268 2.45323 33.658 3.39763 34.6024C4.34202 35.5468 5.4732 36.2836 6.71875 36.7656C8.17568 37.3117 9.71472 37.6065 11.2703 37.6375C13.2703 37.7281 13.9078 37.75 19 37.75C24.0922 37.75 24.7313 37.7281 26.7313 37.6375C28.2868 37.6065 29.8259 37.3117 31.2828 36.7656C32.5284 36.2836 33.6595 35.5468 34.6039 34.6024C35.5483 33.658 36.2851 32.5268 36.7672 31.2812C37.3127 29.8242 37.607 28.2852 37.6375 26.7297C37.7281 24.7297 37.75 24.0938 37.75 19C37.75 13.9062 37.7281 13.2688 37.6375 11.2688C37.6063 9.71369 37.3115 8.17519 36.7656 6.71875C36.2836 5.4732 35.5468 4.34202 34.6024 3.39763C33.658 2.45323 32.5268 1.71643 31.2812 1.23438C29.8242 0.688858 28.2852 0.394575 26.7297 0.364062C24.7297 0.270312 24.0938 0.25 19 0.25Z" fill="black"/>
</svg>
