<svg width="30" height="36" viewBox="0 0 30 36" fill="none" xmlns="http://www.w3.org/2000/svg">
<path d="M15 2.11765C12.1584 2.11765 9.43317 3.23319 7.42386 5.21887C5.41454 7.20455 4.28571 9.89771 4.28571 12.7059C4.28571 15.0946 5.72143 17.8814 7.73571 20.5624C9.72 23.2009 12.1221 25.56 13.7743 27.0572C14.1061 27.3655 14.5445 27.5372 15 27.5372C15.4555 27.5372 15.8939 27.3655 16.2257 27.0572C17.8757 25.5579 20.28 23.2031 22.2643 20.5624C24.2786 17.8814 25.7143 15.0946 25.7143 12.7059C25.7143 9.89771 24.5855 7.20455 22.5761 5.21887C20.5668 3.23319 17.8416 2.11765 15 2.11765ZM2.14286 12.7059C2.14286 9.33607 3.49745 6.10428 5.90863 3.72147C8.31981 1.33865 11.5901 0 15 0C18.4099 0 21.6802 1.33865 24.0914 3.72147C26.5026 6.10428 27.8571 9.33607 27.8571 12.7059C27.8571 15.8146 26.0507 19.0736 23.985 21.8245C21.885 24.6176 19.3736 27.0762 17.6743 28.6158C16.9471 29.2824 15.9919 29.6529 15 29.6529C14.0081 29.6529 13.0529 29.2824 12.3257 28.6158C10.6264 27.0762 8.11286 24.6176 6.015 21.8245C3.94929 19.0736 2.14286 15.8146 2.14286 12.7059ZM15 9.52941C14.1475 9.52941 13.33 9.86407 12.7272 10.4598C12.1244 11.0555 11.7857 11.8634 11.7857 12.7059C11.7857 13.5483 12.1244 14.3563 12.7272 14.952C13.33 15.5477 14.1475 15.8824 15 15.8824C15.8525 15.8824 16.67 15.5477 17.2728 14.952C17.8756 14.3563 18.2143 13.5483 18.2143 12.7059C18.2143 11.8634 17.8756 11.0555 17.2728 10.4598C16.67 9.86407 15.8525 9.52941 15 9.52941ZM9.64286 12.7059C9.64286 11.3018 10.2073 9.95522 11.2119 8.96238C12.2166 7.96954 13.5792 7.41177 15 7.41177C16.4208 7.41177 17.7834 7.96954 18.7881 8.96238C19.7927 9.95522 20.3571 11.3018 20.3571 12.7059C20.3571 14.11 19.7927 15.4565 18.7881 16.4494C17.7834 17.4422 16.4208 18 15 18C13.5792 18 12.2166 17.4422 11.2119 16.4494C10.2073 15.4565 9.64286 14.11 9.64286 12.7059ZM24.4714 24.6452C23.9748 25.2401 23.4639 25.8234 22.9393 26.3944C23.485 26.5468 23.9936 26.7127 24.465 26.892C25.6521 27.3431 26.5414 27.8555 27.1136 28.3701C27.6857 28.8847 27.8571 29.3167 27.8571 29.6471C27.8571 29.9774 27.6857 30.4094 27.1136 30.924C26.5414 31.4386 25.6521 31.9511 24.465 32.4021C22.095 33.3042 18.75 33.8845 15 33.8845C11.25 33.8845 7.905 33.3042 5.535 32.4021C4.34786 31.9511 3.45857 31.4386 2.88643 30.924C2.31429 30.4094 2.14286 29.9774 2.14286 29.6471C2.14286 29.3167 2.31429 28.8847 2.88643 28.3701C3.45857 27.8555 4.34786 27.3431 5.535 26.892C6.03542 26.7026 6.54455 26.5366 7.06071 26.3944C6.53543 25.8239 6.02456 25.2407 5.52857 24.6452C5.27239 24.7302 5.01805 24.8206 4.76571 24.9162C3.435 25.4224 2.28214 26.0513 1.44429 26.8031C0.608571 27.5548 0 28.5162 0 29.6471C0 30.78 0.608571 31.7393 1.44429 32.4911C2.28 33.2428 3.435 33.8718 4.76571 34.38C7.43786 35.3965 11.0571 36 15 36C18.9429 36 22.5621 35.3944 25.2343 34.38C26.565 33.8718 27.7179 33.2428 28.5557 32.4911C29.3914 31.7393 30 30.78 30 29.6471C30 28.5141 29.3914 27.5548 28.5557 26.8031C27.72 26.0513 26.565 25.4224 25.2343 24.9162C24.9819 24.8206 24.7276 24.7302 24.4714 24.6452Z" fill="#F6F7F0"/>
</svg>
