<svg width="30" height="30" viewBox="0 0 30 30" fill="none" xmlns="http://www.w3.org/2000/svg">
<path d="M6.738 0.375C6.14962 0.375 5.568 0.58875 5.08425 0.97125L5.01675 1.00837L4.98075 1.04212L1.46512 4.66463L1.49887 4.69837C0.415499 5.70187 0.0779987 7.20038 0.549374 8.49638C0.551624 8.502 0.547124 8.52337 0.549374 8.53012C1.50225 11.2616 3.9435 16.5289 8.70562 21.2921C13.4869 26.0734 18.8272 28.4134 21.4676 29.4484H21.5014C22.1636 29.6667 22.871 29.7102 23.555 29.5746C24.239 29.439 24.8763 29.1289 25.4051 28.6744L25.4389 28.6406L25.4749 28.6046L28.9579 25.125C29.8916 24.1912 29.8916 22.578 28.9579 21.6443L24.3881 17.0745L24.3521 17.0036C23.4184 16.0699 21.7702 16.0699 20.8365 17.0036L20.8027 17.0396L18.5865 19.2559C16.8978 18.4445 15.3446 17.377 13.9819 16.0912C12.1414 14.3329 11.1986 12.3112 10.8544 11.5192L13.1021 9.26925C14.0494 8.322 14.064 6.75375 13.0684 5.8245L13.1021 5.7885L12.9975 5.68388L8.4975 1.04212L8.46037 1.00837L8.39062 0.97125C7.9225 0.591495 7.33963 0.381345 6.73687 0.375H6.738ZM6.738 2.625C6.82125 2.625 6.90337 2.6655 6.9855 2.73075L11.4855 7.33538L11.5552 7.40625L11.589 7.44C11.5811 7.43437 11.6565 7.54913 11.5192 7.6875L8.70675 10.5L8.178 10.9928L8.4255 11.6947C8.4255 11.6947 9.71925 15.1519 12.4339 17.7428L12.678 17.9531C15.2925 20.3404 18.375 21.6431 18.375 21.6431L19.0781 21.9604L19.6069 21.4339L22.4194 18.6214C22.6106 18.4301 22.5769 18.4301 22.7681 18.6214L27.375 23.226C27.5662 23.4172 27.5662 23.3497 27.375 23.541L23.9291 26.9869C23.4116 27.4324 22.8637 27.5224 22.2079 27.3041C19.6564 26.3029 14.7041 24.1238 10.2885 19.7104C5.83912 15.2587 3.51375 10.2075 2.661 7.75837C2.48887 7.3005 2.61262 6.62213 3.012 6.28125L3.04575 6.2475L3.08175 6.21038L6.49275 2.73075C6.5597 2.66871 6.64583 2.6314 6.73687 2.625H6.738Z" fill="#F6F7F0"/>
</svg>
