<svg width="37" height="37" viewBox="0 0 37 37" fill="none" xmlns="http://www.w3.org/2000/svg">
<path d="M18.4999 30.1117L15.0163 33.5953C13.4764 35.1349 11.388 35.9998 9.2104 35.9998C7.03283 35.9998 4.94443 35.1349 3.40445 33.5953C1.86489 32.0553 1 29.9669 1 27.7893C1 25.6117 1.86489 23.5233 3.40445 21.9833L10.3716 15.0161C11.9116 13.4765 14 12.6116 16.1775 12.6116C18.3551 12.6116 20.4435 13.4765 21.9835 15.0161" stroke="#12314A" stroke-width="2" stroke-linecap="round"/>
<path d="M18.5004 6.88809L21.984 3.40448C23.524 1.8649 25.6124 1 27.7899 1C29.9675 1 32.0559 1.8649 33.5959 3.40448C35.1354 4.94447 36.0003 7.0329 36.0003 9.21049C36.0003 11.3881 35.1354 13.4765 33.5959 15.0165L26.6287 21.9837C25.0888 23.5233 23.0004 24.3882 20.8228 24.3882C18.6452 24.3882 16.5568 23.5233 15.0168 21.9837" stroke="#12314A" stroke-width="2" stroke-linecap="round"/>
</svg>
