<svg width="32" height="35" viewBox="0 0 32 35" fill="none" xmlns="http://www.w3.org/2000/svg">
<path d="M27.0829 5.09259C25.6223 3.47196 23.8826 2.18702 21.9652 1.31269C20.0478 0.438363 17.9912 -0.00784018 15.9152 0.000104247C7.21679 0.000104247 0.127449 7.78758 0.127449 17.3426C0.127449 20.405 0.860279 23.38 2.23035 26.005L0 35L8.36383 32.585C10.6738 33.9675 13.2706 34.7025 15.9152 34.7025C24.6135 34.7025 31.7029 26.915 31.7029 17.3601C31.7029 12.7226 30.062 8.36508 27.0829 5.09259ZM15.9152 31.7625C13.5574 31.7625 11.2474 31.0625 9.22411 29.75L8.74617 29.435L3.77567 30.87L5.09795 25.55L4.77933 25.0075C3.46939 22.7097 2.77383 20.0537 2.77201 17.3426C2.77201 9.39758 8.66652 2.9226 15.8992 2.9226C19.4041 2.9226 22.7018 4.42759 25.1711 7.15758C26.3938 8.49452 27.3628 10.0847 28.0218 11.8361C28.6809 13.5874 29.017 15.465 29.0105 17.3601C29.0424 25.305 23.1479 31.7625 15.9152 31.7625ZM23.116 20.9825C22.7177 20.7725 20.7742 19.7225 20.4237 19.565C20.0573 19.425 19.8024 19.355 19.5315 19.775C19.2607 20.2125 18.5119 21.1925 18.2889 21.4725C18.0659 21.77 17.8269 21.805 17.4286 21.5775C17.0303 21.3675 15.7559 20.895 14.2583 19.425C13.0794 18.2701 12.2988 16.8526 12.0598 16.4151C11.8368 15.9776 12.028 15.7501 12.2351 15.5226C12.4103 15.3301 12.6334 15.0151 12.8245 14.7701C13.0157 14.5251 13.0954 14.3326 13.2228 14.0526C13.3503 13.7551 13.2865 13.5101 13.1909 13.3001C13.0954 13.0901 12.2988 10.9551 11.9802 10.0801C11.6616 9.24008 11.327 9.34508 11.088 9.32758H10.3234C10.0525 9.32758 9.63831 9.43258 9.2719 9.87008C8.92141 10.3076 7.90182 11.3576 7.90182 13.4926C7.90182 15.6276 9.31969 17.6926 9.51087 17.9726C9.70204 18.2701 12.2988 22.645 16.2497 24.5175C17.1897 24.9725 17.9225 25.235 18.496 25.4275C19.4359 25.76 20.2962 25.7075 20.9813 25.6025C21.7459 25.48 23.3231 24.5525 23.6417 23.5375C23.9763 22.5225 23.9763 21.665 23.8648 21.4725C23.7533 21.28 23.5143 21.1925 23.116 20.9825Z" fill="black"/>
</svg>
